<?xml version="1.0" encoding="UTF-8" standalone="no"?>
<!-- Generator: Adobe Illustrator 18.1.0, SVG Export Plug-In . SVG Version: 6.00 Build 0)  -->

<svg
   xmlns:dc="http://purl.org/dc/elements/1.1/"
   xmlns:cc="http://creativecommons.org/ns#"
   xmlns:rdf="http://www.w3.org/1999/02/22-rdf-syntax-ns#"
   xmlns:svg="http://www.w3.org/2000/svg"
   xmlns="http://www.w3.org/2000/svg"
   xmlns:sodipodi="http://sodipodi.sourceforge.net/DTD/sodipodi-0.dtd"
   xmlns:inkscape="http://www.inkscape.org/namespaces/inkscape"
   version="1.0"
   id="Layer_1"
   x="0px"
   y="0px"
   width="72px"
   height="72px"
   viewBox="0 0 72 72"
   enable-background="new 0 0 72 72"
   xml:space="preserve"
   sodipodi:docname="Lepracaun.svg"
   inkscape:version="0.92.4 (5da689c313, 2019-01-14)"><metadata
   id="metadata33"><rdf:RDF><cc:Work
       rdf:about=""><dc:format>image/svg+xml</dc:format><dc:type
         rdf:resource="http://purl.org/dc/dcmitype/StillImage" /><dc:title></dc:title></cc:Work></rdf:RDF></metadata><defs
   id="defs31" /><sodipodi:namedview
   pagecolor="#ffffff"
   bordercolor="#666666"
   borderopacity="1"
   objecttolerance="10"
   gridtolerance="10"
   guidetolerance="10"
   inkscape:pageopacity="0"
   inkscape:pageshadow="2"
   inkscape:window-width="2471"
   inkscape:window-height="1609"
   id="namedview29"
   showgrid="false"
   inkscape:zoom="18.541911"
   inkscape:cx="39.141086"
   inkscape:cy="36.682432"
   inkscape:window-x="5083"
   inkscape:window-y="961"
   inkscape:window-maximized="0"
   inkscape:current-layer="Layer_1" />












<g
   id="g951"><path
     id="path2"
     d="m 25.910421,39.942833 -4.442325,-5.686177 -1.836161,-8.943881 c -0.05923,-0.177693 -0.05923,-0.296155 -0.177693,-0.414617 l 3.376167,-3.080012 c 0.414617,-0.355386 0.473848,-1.006927 0.118462,-1.421544 l -0.05923,-0.05923 -2.073085,-2.546934 -1.006927,-1.303082 -0.473848,-0.59231 c -0.177693,-0.177693 -0.296155,-0.414617 -0.473848,-0.651541 v -0.05923 c 0,0 0,0 0,0 -0.177693,-0.296155 -0.533079,-0.414617 -0.829234,-0.473848 0,-0.05923 0,-0.05923 0,-0.118462 V 13.170421 C 20.638863,11.92657 20.698094,7.7804 20.698094,7.7804 c 0,-2.3692402 -1.895392,-4.2646323 -4.264632,-4.2646323 -2.369241,0 -4.08694,1.2438511 -4.08694,3.5538602 v 0.533079 0 c 0,0 -0.355386,1.1846201 -0.59231,1.6584681 -0.236924,0.5330791 0.05923,0.6515411 0.651541,0.6515411 v 0.8884649 c 0,0.177693 0.473848,0.118462 0.651541,0.05923 0.118462,-0.05923 0.296155,0 0.355386,0.118462 0.05923,0.118462 0,0.296155 -0.118462,0.355386 -0.118462,0.05923 -0.414617,0.118462 -0.59231,0.177693 -0.118462,0 -0.177693,0.118462 -0.177693,0.236924 0.296155,1.066158 1.243851,1.480775 2.487703,1.658468 v 1.303082 c 0,0.414617 0.651541,0.770003 1.540006,0.770003 l -0.533079,3.672323 -1.303082,2.310009 -5.2123288,-0.770003 c 0,-0.177693 -0.059231,-0.296155 -0.177693,-0.414617 -0.296155,-0.355386 -0.59231,-0.710772 -0.888465,-1.006927 -0.296155,-0.355386 -0.8292341,-0.414617 -1.1846201,-0.118462 0,0 -0.059231,0.05923 -0.059231,0.05923 -0.414617,-0.118462 -0.888465,0.177693 -1.006927,0.59231 -0.059231,0.236924 -0.177693,0.473848 -0.236924,0.710772 l -0.059231,0.118462 c -0.118462,0.414617 0.118462,0.829234 0.533079,1.006927 0.651541,0.236924 1.3030821,0.414617 1.9546231,0.533079 0.059231,0 0.118462,0 0.177693,0 l 6.3969488,1.895392 c 0.473848,0.177693 1.066158,-0.05923 1.303082,-0.533079 l 0.05923,-0.118462 1.77693,-3.020781 c 0,0 0.829234,-0.473848 1.421544,-0.710772 l 1.066158,1.303082 -5.745407,5.863869 c -0.177693,0.236924 -0.355387,0.533079 -0.473849,0.829234 l -0.414617,0.829234 -0.414617,0.829234 c -0.118462,0.296155 -0.236924,0.59231 -0.355386,0.829234 -0.236924,0.59231 -0.473848,1.18462 -0.651541,1.717699 -0.118462,0.296155 -0.177693,0.59231 -0.296155,0.888465 l -0.296155,0.888465 -0.05923,0.177693 -0.236924,1.125389 c -0.05923,0.355386 -0.177693,0.770003 -0.236924,1.125389 -0.118462,0.770003 -0.236924,1.540006 -0.355386,2.31001 -0.05923,0.414617 -0.118462,0.770003 -0.118462,1.18462 l -0.118462,1.18462 -0.05923,1.18462 c 0,0.414617 -0.05923,0.770003 -0.05923,1.18462 V 43.319 c 0,0.236924 0.177693,0.473848 0.414617,0.59231 0.296155,0.118462 0.710772,-0.05923 0.829234,-0.355386 l 0.770003,-2.191547 0.710772,-2.191547 1.421545,-4.264633 1.480775,-3.376167 0.770003,-1.717699 0.05923,-0.118462 1.125389,5.567714 0.05923,0.177693 c 0.05923,0.177693 0.118462,0.355386 0.296155,0.533079 l 5.567714,5.27156 0.118462,0.118462 c 0.414617,0.355386 1.006927,0.414617 1.421544,0.05923 0.473848,-0.296155 0.59231,-1.006927 0.177693,-1.480775 z"
     inkscape:connector-curvature="0"
     style="fill:#ffd3b6;stroke-width:0.59231001" /><path
     id="path4"
     d="m 12.583445,43.319 c -0.177693,0.355386 -0.473848,1.066158 -0.710772,1.421544 0,0 -0.414617,-0.177693 -1.066158,-0.473848 C 10.51036,44.148234 10.154974,43.970541 9.7403573,43.852079 9.3257402,43.674386 8.9111232,43.555924 8.4965062,43.378231 8.2595822,43.319 8.0818892,43.200538 7.9041962,43.141307 7.7265032,43.082076 7.4895791,42.963614 7.3118861,42.904383 6.9565001,42.72669 6.6011141,42.548997 6.3049591,42.430535 6.0088041,42.312073 5.7718801,42.13438 5.594187,42.075149 5.475725,42.015918 5.416494,41.956687 5.357263,41.956687 c 0.296155,-0.710772 1.1253891,-0.236924 2.1915471,-0.236924 0.6515411,0 1.1253891,0 1.4215441,-0.05923 0.8884651,-0.177693 1.1253888,-0.829234 1.4215438,-0.829234 0,0 0,0 0,0 0,0 0.05923,0 0.05923,0 0,0 0,0 0,0 0,0 0.05923,0 0.05923,0 0,0 0,0 0.05923,0 0,0 0.05923,0.05923 0.05923,0.05923 0,0 0.05923,0 0.05923,0.05923 0,0 0.05923,0.05923 0.05923,0.05923 0.05923,0.05923 0.118462,0.177693 0.177693,0.236924 0,0.05923 0.05923,0.05923 0.05923,0.118462 0,0 0,0 0,0.05923 0,0 0,0.05923 0,0.05923 0,0 0,0 0,0.05923 0,0 0,0.05923 0,0.05923 0,0 0,0 0,0.05923 0,0 0,0 0,0.05923 0,0 0,0 -0.05923,0.05923 0,0 0,0 -0.05923,0 0,0 -0.05923,0 -0.05923,0.05923 0,0 0,0 -0.05923,0 0,0 -0.05923,0 -0.05923,0.05923 0,0 0,0 0,0 -0.05923,0 -0.05923,0 -0.118462,0.05923 0,0 0,0 0,0 0,0 0,0 0,0 -0.118462,0.05923 -0.236924,0.05923 -0.296155,0.05923 0.177693,0.296155 0.414617,0.533079 0.770003,0.710772 0.236924,0.118462 0.473848,0.177693 0.710772,0.177693 0.355386,0 0.770003,-0.118462 1.066158,-0.414617 0,0 0,0 0,0 0.05923,0.118462 -0.05923,0.473848 -0.236924,0.829234 z m 14.333903,-2.546933 c -0.236924,-0.414617 -0.533079,-0.710772 -0.829234,-0.710772 0.177693,0.59231 -0.05923,1.243851 -0.59231,1.599237 -0.296155,0.177693 -0.59231,0.236924 -0.888465,0.236924 0,-0.05923 0,-0.118462 0.05923,-0.118462 0,0 0,0 0,-0.05923 0,-0.05923 0,-0.05923 0,-0.118462 0,0 0,0 0,-0.05923 0,0 0,-0.05923 0,-0.05923 0,0 0,-0.05923 0,-0.05923 0,0 0,-0.05923 0,-0.05923 0,0 0,0 0,-0.05923 0,0 0,-0.05923 0,-0.05923 0,0 0,0 0,-0.05923 0,0 0,-0.05923 -0.05923,-0.05923 0,0 0,0 0,0 0,0 -0.05923,0 -0.05923,0 0,0 0,0 -0.05923,0 -0.05923,0 -0.05923,0 -0.118462,0 -1.421544,0.118462 -0.296155,0.59231 -0.770003,1.836161 v 0 c -0.05923,0.177693 -0.236924,0.414617 -0.533079,0.651541 -0.829234,0.770003 -1.362313,0.533079 -1.006927,1.303082 0,0 1.006927,0.236924 1.836161,-0.05923 0.829234,-0.296155 1.006927,-0.177693 1.599237,-0.829234 0.414617,-0.414617 2.428471,-1.599237 2.428471,-1.599237 0,0 -0.651541,-1.125389 -1.006927,-1.658468 z"
     inkscape:connector-curvature="0"
     style="fill:#76dfff;stroke-width:0.59231001" /><path
     id="path6"
     d="m 8.0226582,41.660532 c 0.118462,0 0.296155,0 0.414617,0 0.236924,0.355386 0.355386,0.710772 0.355386,1.125389 0.414617,0.177693 0.8884651,0.236924 1.3030818,0.05923 0.296155,-0.118462 0.533079,-0.296155 0.710772,-0.533079 0.05923,0.05923 0.177693,0.118462 0.296155,0.177693 -0.236924,0.296155 -0.533079,0.533079 -0.888465,0.651541 -0.2369237,0.05923 -0.4738477,0.118462 -0.6515408,0.118462 -0.236924,0 -0.533079,-0.05923 -0.770003,-0.177693 0,0.118462 -0.059231,0.236924 -0.118462,0.355386 0,0 -0.059231,0 -0.059231,0 -0.059231,-0.05923 -0.118462,-0.05923 -0.236924,-0.118462 0.118462,-0.59231 0,-1.18462 -0.355386,-1.658467 z m 17.4139148,0.05923 c -0.118462,0.05923 -0.177693,0.118462 -0.296155,0.118462 0.118462,0.296155 0.118462,0.59231 0.05923,0.888465 -0.05923,0.355386 -0.236924,0.651541 -0.533079,0.888465 -0.296155,-0.296155 -0.710772,-0.533079 -1.125389,-0.59231 -0.05923,0.05923 -0.118462,0.177693 -0.177693,0.296155 0.651541,0.05923 1.243851,0.473848 1.480775,1.18462 0,0 0,0.05923 0,0.05923 0.118462,-0.05923 0.177693,-0.118462 0.296155,-0.177693 0,0 0,0 0,0 -0.05923,-0.177693 -0.177693,-0.355386 -0.236924,-0.533079 0.59231,-0.533079 0.770003,-1.421544 0.533079,-2.132316 z"
     inkscape:connector-curvature="0"
     style="fill:#ffffff;stroke-width:0.59231001" /><path
     id="path8"
     d="m 12.583445,43.259769 c 0,0 0,0.05923 -0.05923,0.05923 -0.177693,0.355386 -0.533079,1.066158 -0.710772,1.421544 0,0 -0.414617,-0.177693 -1.066158,-0.473848 -0.05923,0 -0.05923,-0.05923 -0.118462,-0.05923 0.473848,-0.710772 1.243851,-1.066158 1.954623,-0.947696 z M 9.2665092,41.897456 c -0.059231,0.05923 0,0.177693 0.059231,0.236924 0.059231,0.05923 0.177693,0 0.236924,-0.05923 0.059231,-0.05923 0,-0.177693 -0.059231,-0.236924 -0.059231,-0.05923 -0.177693,-0.05923 -0.236924,0.05923 z m 0.5330791,-0.118462 c -0.059231,0.118462 0,0.236924 0.118462,0.236924 0.1184617,0.05923 0.2369237,0 0.2369237,-0.118462 0.05923,-0.118462 0,-0.236924 -0.118462,-0.236924 -0.059231,0 -0.1776927,0 -0.2369237,0.118462 z M 26.917348,40.772067 c 0,0 -0.05923,-0.05923 -0.05923,-0.05923 -0.473848,0.59231 -0.59231,1.480775 -0.118462,2.132316 l 1.18462,-0.533079 C 27.746583,42.07515 27.213504,41.186685 26.917349,40.772068 Z m -2.96155,2.073085 c 0.05923,0.05923 0.177693,0.118462 0.236924,0.05923 0.05923,-0.05923 0.118462,-0.177693 0.05923,-0.236924 -0.05923,-0.05923 -0.177693,-0.118462 -0.236924,-0.05923 -0.05923,0.05923 -0.05923,0.118462 -0.05923,0.236924 z m 0.236924,-0.533079 c 0.05923,0.118462 0.177693,0.118462 0.236924,0.05923 0.118462,-0.05923 0.118462,-0.177693 0.05923,-0.236924 -0.05923,-0.118462 -0.177693,-0.118462 -0.236924,-0.05923 -0.118462,0.05923 -0.118462,0.177693 -0.05923,0.236924 z"
     inkscape:connector-curvature="0"
     style="fill:#00b1ff;stroke-width:0.59231001" /><path
     id="path10"
     d="m 9.9772813,41.956687 c -0.059231,0 -0.059231,0 -0.059231,-0.05923 -0.059231,-0.177693 -0.177693,-0.533079 -0.3553861,-0.533079 -0.059231,0 -0.059231,-0.05923 -0.118462,-0.05923 0,-0.05923 0.059231,-0.05923 0.059231,-0.118462 0.3553861,0 0.4738481,0.59231 0.4738481,0.651541 0.059231,0.05923 0.059231,0.118462 0,0.118462 0,0 0,0 0,0 z m -0.5330791,0.05923 c 0.059231,0 0.059231,-0.05923 0.059231,-0.118462 0,-0.05923 -0.177693,-0.651541 -0.473848,-0.651541 -0.059231,0 -0.059231,0.05923 -0.059231,0.118462 0,0.05923 0.059231,0.05923 0.059231,0.05923 0,0 0,0 0,0 0.177693,0 0.296155,0.355386 0.296155,0.533079 0,0.05923 0.059231,0.118462 0.118462,0.05923 0,0.05923 0,0 0,0 z m 3.3761668,0.177693 c -0.05923,-0.05923 -0.177693,-0.05923 -0.236924,0 -0.414617,0.355386 -0.947696,0.414617 -1.421544,0.177693 -0.236924,-0.118462 -0.414617,-0.296155 -0.533079,-0.473848 -0.118462,0.05923 -0.236924,0.05923 -0.296155,0.05923 0.177693,0.296155 0.414617,0.533079 0.770003,0.710772 0.236924,0.118462 0.473848,0.177693 0.710772,0.177693 0.355386,0 0.770003,-0.118462 1.066158,-0.414617 0,-0.05923 0,-0.177693 -0.05923,-0.236924 z m 10.898505,0.118462 c 0.05923,-0.118462 0.414617,-0.05923 0.59231,0 0.05923,0 0.118462,0 0.118462,-0.05923 0,-0.05923 0,-0.118462 -0.05923,-0.118462 -0.05923,0 -0.651541,-0.236924 -0.829234,0.118462 0,0.05923 0,0.118462 0.05923,0.118462 0,0 0,0 0.05923,0 0,0 0,0 0.05923,-0.05923 z m -0.236924,0.533079 c 0.05923,-0.118462 0.414617,-0.05923 0.59231,0 0.05923,0 0.118462,0 0.118462,-0.05923 0,-0.05923 0,-0.118462 -0.05923,-0.118462 -0.05923,0 -0.651541,-0.236924 -0.829234,0.118462 0,0.05923 0,0.118462 0.05923,0.118462 0,0 0,0 0.05923,0 0,-0.05923 0.05923,-0.05923 0.05923,-0.05923 z m 2.783857,-2.724626 c 0,-0.05923 -0.118462,-0.118462 -0.177693,-0.118462 -0.05923,0 -0.118462,0.118462 -0.118462,0.177693 0.05923,0.533079 -0.118462,1.006927 -0.59231,1.303082 -0.236924,0.118462 -0.473848,0.236924 -0.710772,0.236924 0,0.118462 -0.05923,0.236924 -0.118462,0.296155 0.05923,0 0.05923,0 0.118462,0 0.296155,0 0.59231,-0.118462 0.888465,-0.296155 0.533079,-0.296155 0.829234,-0.947696 0.710772,-1.599237 z"
     inkscape:connector-curvature="0"
     style="fill:#2b3b47;stroke-width:0.59231001" /><path
     id="path12"
     d="m 5.298032,41.838225 c 0,0 0.118462,0.05923 0.296155,0.177693 0.1776931,0.118462 0.4146171,0.236924 0.7107721,0.355386 0.296155,0.118462 0.651541,0.296155 1.006927,0.473848 0.177693,0.05923 0.4146171,0.177693 0.5923101,0.236924 0.177693,0.05923 0.414617,0.177693 0.59231,0.236924 0.414617,0.177693 0.829234,0.296155 1.2438511,0.473848 0.4146167,0.118462 0.7700027,0.296155 1.0661577,0.414617 0.651541,0.296155 1.066158,0.473848 1.066158,0.473848 l -0.296155,0.59231 c 0,0 -0.414617,-0.177693 -1.006927,-0.473848 C 10.273436,44.622082 9.9180503,44.50362 9.5034332,44.325927 9.1480472,44.148234 8.6741992,43.970541 8.2595822,43.792848 8.0818892,43.674386 7.8449652,43.615155 7.6672722,43.496693 7.4895791,43.378231 7.2526551,43.319 7.0749621,43.200538 6.7195761,43.022845 6.3641901,42.785921 6.0680351,42.667459 5.7718801,42.489766 5.534956,42.371304 5.357263,42.252842 5.17957,42.13438 5.120339,42.075149 5.120339,42.075149 Z m 16.762374,3.376167 c 0,0 0.118462,0 0.296155,0 0.177693,0.05923 0.473848,0.05923 0.829234,0 0.177693,0 0.355386,-0.05923 0.533079,-0.118462 0.177693,-0.05923 0.355386,-0.118462 0.533079,-0.177693 0.177693,-0.05923 0.355386,-0.118462 0.59231,-0.177693 0.177693,-0.05923 0.414617,-0.177693 0.59231,-0.236924 0.414617,-0.177693 0.770003,-0.473848 1.066158,-0.710772 0.296155,-0.236924 0.59231,-0.414617 0.888465,-0.59231 0.533079,-0.355386 0.888465,-0.533079 0.888465,-0.533079 L 27.924275,42.13438 c 0,0 -0.355386,0.236924 -0.888465,0.59231 -0.236924,0.177693 -0.533079,0.414617 -0.888465,0.651541 -0.296155,0.236924 -0.59231,0.533079 -0.947696,0.710772 -0.177693,0.118462 -0.355386,0.177693 -0.533079,0.236924 -0.177693,0.05923 -0.355386,0.177693 -0.533079,0.236924 -0.177693,0.05923 -0.355386,0.118462 -0.533079,0.177693 -0.177693,0.05923 -0.296155,0.118462 -0.473848,0.118462 -0.296155,0.05923 -0.473848,0.05923 -0.710772,0 -0.177693,0 -0.296155,0 -0.296155,0 z"
     inkscape:connector-curvature="0"
     style="fill:#e5e5e5;stroke-width:0.59231001" /><path
     id="path14"
     d="m 22.711947,33.012805 -2.96155,-7.522337 -6.100794,-1.125389 -2.073085,5.212328 -0.947696,2.902319 c -0.05923,0.296155 0.05923,0.59231 0.355386,0.651541 l 4.264633,1.480775 c 0.296155,0.118462 0.59231,-0.05923 0.710772,-0.355386 l 0.533079,-1.77693 0.947696,2.36924 c 0.118462,0.296155 0.414617,0.414617 0.651541,0.296155 l 4.264632,-1.540006 c 0.355386,0 0.473848,-0.355386 0.355386,-0.59231 z"
     inkscape:connector-curvature="0"
     style="fill:#00b1ff;stroke-width:0.59231001" /><path
     id="path16"
     d="m 20.638862,16.487355 c 0,-1.18462 -1.125389,-2.191547 -2.724626,-2.546933 v 0.651541 c 0,0.05923 0,0.05923 0,0.118462 0,0.414617 -0.710772,0.770003 -1.540006,0.770003 -0.829234,0 -1.540006,-0.355386 -1.540006,-0.770003 v -0.710772 c -1.184621,0.414617 -1.599238,1.362313 -1.599238,2.487702 l -0.355386,4.738481 1.658468,0.236924 1.303083,-2.310009 0.236924,-0.414617 c 0.177693,0.59231 0.59231,1.125389 1.18462,1.421544 0.236924,0.118462 0.533079,0.177693 0.829234,0.177693 0,0 0.05923,0 0.05923,0 l -0.118462,0.177693 -1.77693,3.020781 -0.05923,0.118462 c -0.296155,0.473848 -0.829234,0.651541 -1.303082,0.533079 l -2.250779,-0.651541 -0.296155,3.55386 c 0,0.947696 1.18462,1.717699 3.968478,1.717699 2.783857,0 5.034635,-0.770003 5.034635,-1.717699 z"
     inkscape:connector-curvature="0"
     style="fill:#597b91;stroke-width:0.59231001" /><path
     id="path18"
     d="m 16.37423,10.149638 c -0.118462,0 -0.177693,-0.05923 -0.177693,-0.1776929 0,-0.118462 0.05923,-0.177693 0.177693,-0.177693 0.355386,0 0.651541,-0.2961551 0.651541,-0.6515411 0,-0.355386 -0.296155,-0.710772 -0.651541,-0.710772 -0.118462,0 -0.177693,-0.059231 -0.177693,-0.177693 0,-0.118462 0.05923,-0.177693 0.177693,-0.177693 0.59231,0 1.066158,0.473848 1.066158,1.066158 0,0.5923101 -0.533079,1.006927 -1.066158,1.006927 z"
     inkscape:connector-curvature="0"
     style="fill:#edc0a2;stroke-width:0.59231001" /><path
     id="path20"
     d="m 12.8796,6.8919329 c 0,0 0.296155,-0.059231 0.59231,0 0.05923,0 0.177693,0 0.236924,0.059231 0.05923,0 0.118462,0.059231 0.177693,0.059231 0.05923,0 0.118462,0.059231 0.118462,0.118462 0.05923,0 0.05923,0.059231 0.05923,0.059231 0.05923,0.059231 0.05923,0.118462 0,0.177693 -0.05923,0.059231 -0.118462,0.059231 -0.177693,0.059231 h -0.05923 c 0,0 0,0 -0.05923,0 0,0 -0.05923,-0.059231 -0.05923,-0.059231 -0.05923,0 -0.118462,-0.059231 -0.177693,-0.059231 -0.05923,0 -0.118462,0 -0.177693,0 -0.296155,0 -0.533079,0.059231 -0.533079,0.059231 -0.118462,0 -0.177693,-0.059231 -0.177693,-0.118462 0.05923,-0.236924 0.118462,-0.296155 0.236924,-0.355386 -0.05923,0 0,0 0,0 z"
     inkscape:connector-curvature="0"
     style="fill:#e5ab83;stroke-width:0.59231001" /><path
     id="path22"
     d="m 13.827296,8.017322 c 0,-0.177693 -0.177693,-0.296155 -0.355386,-0.296155 -0.177693,0 -0.355386,0.118462 -0.355386,0.296155 v 0 0.473848 0 c 0,0 0,0 0,0 0,0.177693 0.177693,0.355386 0.355386,0.355386 0.177693,0 0.355386,-0.177693 0.355386,-0.355386 0,0 0,0 0,0 v 0 z"
     inkscape:connector-curvature="0"
     style="fill:#2b3b47;stroke-width:0.59231001" /><path
     id="path24"
     d="m 13.353448,8.017322 c 0,-0.059231 -0.05923,-0.059231 -0.05923,-0.059231 -0.05923,0 -0.05923,0.059231 -0.05923,0.059231 v 0 0.118462 0 0 c 0,0.059231 0.05923,0.059231 0.05923,0.059231 0.05923,0 0.05923,-0.059231 0.05923,-0.059231 v 0 0 z"
     inkscape:connector-curvature="0"
     style="fill:#959da3;stroke-width:0.59231001" /><path
     id="path26"
     d="m 17.025771,2.7457627 c -1.717699,0 -4.146171,0.651541 -4.205402,0.710772 -0.05923,0.059231 0.177693,0.2961551 0.05923,0.3553861 -0.177693,0.177693 -0.296155,0.296155 -0.473848,0.533079 -0.177693,0.177693 0.05923,0.296155 0.829234,0.296155 0.177693,0 0,0.473848 0.177693,0.473848 0.118462,0 2.31001,-1.006927 2.31001,2.5469331 0,0.2961551 0.118462,0.4738481 0.414617,0.4738481 0.177693,0 1.006927,0.059231 1.006927,0.947696 0,1.006927 2.724626,1.954623 2.783857,1.895392 0.59231,-0.651541 1.18462,-2.250778 1.18462,-3.8500151 0,-1.5992371 -1.066158,-4.3830942 -4.086939,-4.3830942 z"
     inkscape:connector-curvature="0"
     style="fill:#2b0000;stroke-width:0.59231001" /></g>
<path
   style="fill:#808080;stroke-width:0.59231001"
   inkscape:connector-curvature="0"
   d="m 23.600412,65.412164 c 0,0 0.118462,0.05923 0.296155,0.177693 0.177693,0.118462 0.414617,0.236924 0.710772,0.355386 0.296155,0.118462 0.651541,0.296155 1.006927,0.473848 0.177693,0.05923 0.414617,0.177693 0.59231,0.236924 0.177693,0.05923 0.414617,0.177693 0.59231,0.236924 0.414617,0.177693 0.829234,0.296155 1.243851,0.473848 0.414617,0.118462 0.770003,0.296155 1.066158,0.414617 0.651541,0.296155 1.066158,0.473848 1.066158,0.473848 l -0.296155,0.59231 c 0,0 -0.414617,-0.177693 -1.006927,-0.473848 C 28.575816,68.196021 28.22043,68.077559 27.805813,67.899866 27.450427,67.722173 26.976579,67.54448 26.561962,67.366787 26.384269,67.248325 26.147345,67.189094 25.969652,67.070632 25.791959,66.95217 25.555035,66.892939 25.377342,66.774477 25.021956,66.596784 24.66657,66.35986 24.370415,66.241398 24.07426,66.063705 23.837336,65.945243 23.659643,65.826781 23.48195,65.708319 23.422719,65.649088 23.422719,65.649088 Z m 16.762373,3.376167 c 0,0 0.118462,0 0.296155,0 0.177693,0.05923 0.473848,0.05923 0.829234,0 0.177693,0 0.355386,-0.05923 0.533079,-0.118462 0.177693,-0.05923 0.355386,-0.118462 0.533079,-0.177693 0.177693,-0.05923 0.355387,-0.118462 0.592311,-0.177693 0.177693,-0.05923 0.414617,-0.177693 0.59231,-0.236924 0.414617,-0.177693 0.770003,-0.473848 1.066158,-0.710772 0.296155,-0.236924 0.59231,-0.414617 0.888465,-0.59231 0.533079,-0.355386 0.888465,-0.533079 0.888465,-0.533079 l -0.355386,-0.533079 c 0,0 -0.355386,0.236924 -0.888465,0.59231 -0.236924,0.177693 -0.533079,0.414617 -0.888465,0.651541 -0.296155,0.236924 -0.59231,0.533079 -0.947696,0.710772 -0.177693,0.118462 -0.355386,0.177693 -0.533079,0.236924 -0.177693,0.05923 -0.355387,0.177693 -0.53308,0.236924 -0.177693,0.05923 -0.355386,0.118462 -0.533079,0.177693 -0.177693,0.05923 -0.296155,0.118462 -0.473848,0.118462 -0.296155,0.05923 -0.473848,0.05923 -0.710772,0 -0.177693,0 -0.296155,0 -0.296155,0 z"
   id="path12-4" /><g
   id="g1075"
   transform="translate(0.414614,-0.473849)"><path
     id="path2-4"
     d="m 44.212801,63.516772 -4.442326,-5.686176 -1.836161,-8.943882 c -0.05923,-0.177693 -0.05923,-0.296155 -0.177693,-0.414617 l 3.376167,-3.080012 c 0.414617,-0.355386 0.473848,-1.006927 0.118462,-1.421544 l -0.05923,-0.05923 -2.073085,-2.546933 -1.006927,-1.303082 -0.473848,-0.59231 c -0.177693,-0.177693 -0.296155,-0.414617 -0.473848,-0.651541 v -0.05923 c 0,0 0,0 0,0 -0.177693,-0.296155 -0.533079,-0.414617 -0.829234,-0.473848 0,-0.05923 0,-0.05923 0,-0.118462 v -1.421544 c 2.606164,-1.243852 2.665395,-5.390022 2.665395,-5.390022 0,-2.36924 -1.895392,-4.264632 -4.264632,-4.264632 -2.36924,0 -4.086939,1.243851 -4.086939,3.55386 v 0.533079 0 c 0,0 -0.355386,1.18462 -0.59231,1.658468 -0.236924,0.533079 0.05923,0.651541 0.651541,0.651541 v 0.888465 c 0,0.177693 0.473848,0.118462 0.651541,0.05923 0.118462,-0.05923 0.296155,0 0.355386,0.118462 0.05923,0.118462 0,0.296155 -0.118462,0.355386 -0.118462,0.05923 -0.414617,0.118462 -0.59231,0.177693 -0.118462,0 -0.177693,0.118462 -0.177693,0.236924 0.296155,1.066159 1.243851,1.480776 2.487702,1.658469 v 1.303082 c 0,0.414617 0.651541,0.770003 1.540006,0.770003 l -0.533079,3.672322 -1.303082,2.310009 -5.212328,-0.770003 c 0,-0.177693 -0.05923,-0.296155 -0.177693,-0.414617 -0.296155,-0.355386 -0.59231,-0.710772 -0.888465,-1.006927 -0.296155,-0.355386 -0.829234,-0.414617 -1.18462,-0.118462 0,0 -0.05923,0.05923 -0.05923,0.05923 -0.414617,-0.118462 -0.888465,0.177693 -1.006927,0.59231 -0.05923,0.236924 -0.177693,0.473848 -0.236924,0.710772 l -0.05923,0.118462 c -0.118462,0.414617 0.118462,0.829234 0.533079,1.006927 0.651541,0.236924 1.303082,0.414617 1.954623,0.533079 0.05923,0 0.118462,0 0.177693,0 l 6.396948,1.895392 c 0.473848,0.177693 1.066158,-0.05923 1.303082,-0.533079 l 0.05923,-0.118462 1.77693,-3.020781 c 0,0 0.829234,-0.473848 1.421544,-0.710772 l 1.066158,1.303082 -5.745407,5.863869 c -0.177693,0.236924 -0.355386,0.533079 -0.473848,0.829234 l -0.414617,0.829234 -0.414617,0.829234 c -0.118462,0.296155 -0.236924,0.59231 -0.355386,0.829234 -0.236924,0.59231 -0.473848,1.18462 -0.651541,1.717699 -0.118462,0.296155 -0.177693,0.592311 -0.296155,0.888466 l -0.296155,0.888465 -0.05923,0.177693 -0.236924,1.125389 c -0.05923,0.355386 -0.177693,0.770003 -0.236924,1.125389 -0.118462,0.770003 -0.236924,1.540006 -0.355386,2.310009 -0.05923,0.414617 -0.118462,0.770003 -0.118462,1.18462 l -0.118462,1.18462 -0.05923,1.18462 c 0,0.414617 -0.05923,0.770003 -0.05923,1.18462 v 0.177693 c 0,0.236924 0.177693,0.473848 0.414617,0.59231 0.296155,0.118462 0.710772,-0.05923 0.829234,-0.355386 l 0.770003,-2.191547 0.710772,-2.191547 1.421544,-4.264632 1.480775,-3.376168 0.770003,-1.717699 0.05923,-0.118462 1.125389,5.567715 0.05923,0.177693 c 0.05923,0.177693 0.118462,0.355386 0.296155,0.533079 l 5.567714,5.271559 0.118462,0.118462 c 0.414618,0.355386 1.006928,0.414617 1.421545,0.05923 0.473848,-0.296155 0.59231,-1.006927 0.177693,-1.480775 z"
     inkscape:connector-curvature="0"
     style="fill:#ffe6d5;stroke-width:0.59231001" /><path
     id="path4-8"
     d="m 30.885825,66.892939 c -0.177693,0.355386 -0.473848,1.066158 -0.710772,1.421544 0,0 -0.414617,-0.177693 -1.066158,-0.473848 -0.296155,-0.118462 -0.651541,-0.296155 -1.066158,-0.414617 -0.414617,-0.177693 -0.829234,-0.296155 -1.243851,-0.473848 -0.236924,-0.05923 -0.414617,-0.177693 -0.59231,-0.236924 -0.177693,-0.05923 -0.414617,-0.177693 -0.59231,-0.236924 -0.355386,-0.177693 -0.710772,-0.355386 -1.006927,-0.473848 -0.296155,-0.118462 -0.533079,-0.296155 -0.710772,-0.355386 -0.118462,-0.05923 -0.177693,-0.118462 -0.236924,-0.118462 0.296155,-0.710772 1.125389,-0.236924 2.191547,-0.236924 0.651541,0 1.125389,0 1.421544,-0.05923 0.888465,-0.177693 1.125389,-0.829234 1.421544,-0.829234 0,0 0,0 0,0 0,0 0.05923,0 0.05923,0 0,0 0,0 0,0 0,0 0.05923,0 0.05923,0 0,0 0,0 0.05923,0 0,0 0.05923,0.05923 0.05923,0.05923 0,0 0.05923,0 0.05923,0.05923 0,0 0.05923,0.05923 0.05923,0.05923 0.05923,0.05923 0.118462,0.177693 0.177693,0.236924 0,0.05923 0.05923,0.05923 0.05923,0.118462 0,0 0,0 0,0.05923 0,0 0,0.05923 0,0.05923 0,0 0,0 0,0.05923 0,0 0,0.05923 0,0.05923 0,0 0,0 0,0.05923 0,0 0,0 0,0.05923 0,0 0,0 -0.05923,0.05923 0,0 0,0 -0.05923,0 0,0 -0.05923,0 -0.05923,0.05923 0,0 0,0 -0.05923,0 0,0 -0.05923,0 -0.05923,0.05923 0,0 0,0 0,0 -0.05923,0 -0.05923,0 -0.118462,0.05923 0,0 0,0 0,0 0,0 0,0 0,0 -0.118462,0.05923 -0.236924,0.05923 -0.296155,0.05923 0.177693,0.296155 0.414617,0.533079 0.770003,0.710772 0.236924,0.118462 0.473848,0.177693 0.710772,0.177693 0.355386,0 0.770003,-0.118462 1.066158,-0.414617 0,0 0,0 0,0 0.05923,0.118462 -0.05923,0.473848 -0.236924,0.829234 z m 14.333903,-2.546933 c -0.236924,-0.414617 -0.533079,-0.710772 -0.829234,-0.710772 0.177693,0.59231 -0.05923,1.243851 -0.59231,1.599237 -0.296155,0.177693 -0.59231,0.236924 -0.888465,0.236924 0,-0.05923 0,-0.118462 0.05923,-0.118462 0,0 0,0 0,-0.05923 0,-0.05923 0,-0.05923 0,-0.118462 0,0 0,0 0,-0.05923 0,0 0,-0.05923 0,-0.05923 0,0 0,-0.05923 0,-0.05923 0,0 0,-0.05923 0,-0.05923 0,0 0,0 0,-0.05923 0,0 0,-0.05923 0,-0.05923 0,0 0,0 0,-0.05923 0,0 0,-0.05923 -0.05923,-0.05923 0,0 0,0 0,0 0,0 -0.05923,0 -0.05923,0 0,0 0,0 -0.05923,0 -0.05923,0 -0.05923,0 -0.118463,0 -1.421544,0.118462 -0.296155,0.59231 -0.770003,1.836161 v 0 c -0.05923,0.177693 -0.236924,0.414617 -0.533079,0.651541 -0.829234,0.770003 -1.362313,0.533079 -1.006927,1.303082 0,0 1.006927,0.236924 1.836161,-0.05923 0.829235,-0.296155 1.006928,-0.177693 1.599238,-0.829234 0.414617,-0.414617 2.428471,-1.599237 2.428471,-1.599237 0,0 -0.651541,-1.125389 -1.006927,-1.658468 z"
     inkscape:connector-curvature="0"
     style="fill:#ff0000;stroke-width:0.59231001" /><path
     id="path6-4"
     d="m 26.325038,65.234471 c 0.118462,0 0.296155,0 0.414617,0 0.236924,0.355386 0.355386,0.710772 0.355386,1.125389 0.414617,0.177693 0.888465,0.236924 1.303082,0.05923 0.296155,-0.118462 0.533079,-0.296155 0.710772,-0.533079 0.05923,0.05923 0.177693,0.118462 0.296155,0.177693 -0.236924,0.296155 -0.533079,0.533079 -0.888465,0.651541 -0.236924,0.05923 -0.473848,0.118462 -0.651541,0.118462 -0.236924,0 -0.533079,-0.05923 -0.770003,-0.177693 0,0.118462 -0.05923,0.236924 -0.118462,0.355386 0,0 -0.05923,0 -0.05923,0 -0.05923,-0.05923 -0.118462,-0.05923 -0.236924,-0.118462 0.118462,-0.59231 0,-1.18462 -0.355386,-1.658468 z m 17.413915,0.05923 c -0.118462,0.05923 -0.177693,0.118462 -0.296155,0.118462 0.118462,0.296155 0.118462,0.59231 0.05923,0.888465 -0.05923,0.355386 -0.236924,0.651541 -0.533079,0.888465 -0.296156,-0.296155 -0.710773,-0.533079 -1.12539,-0.59231 -0.05923,0.05923 -0.118462,0.177693 -0.177693,0.296155 0.651541,0.05923 1.243852,0.473848 1.480776,1.18462 0,0 0,0.05923 0,0.05923 0.118462,-0.05923 0.177693,-0.118462 0.296155,-0.177693 0,0 0,0 0,0 -0.05923,-0.177693 -0.177693,-0.355386 -0.236924,-0.533079 0.59231,-0.533079 0.770003,-1.421544 0.533079,-2.132316 z"
     inkscape:connector-curvature="0"
     style="fill:#ffffff;stroke-width:0.59231001" /><path
     id="path8-5"
     d="m 30.885825,66.833708 c 0,0 0,0.05923 -0.05923,0.05923 -0.177693,0.355386 -0.533079,1.066158 -0.710772,1.421544 0,0 -0.414617,-0.177693 -1.066158,-0.473848 -0.05923,0 -0.05923,-0.05923 -0.118462,-0.05923 0.473848,-0.710772 1.243851,-1.066158 1.954622,-0.947696 z m -3.316936,-1.362313 c -0.05923,0.05923 0,0.177693 0.05923,0.236924 0.05923,0.05923 0.177693,0 0.236924,-0.05923 0.05923,-0.05923 0,-0.177693 -0.05923,-0.236924 -0.05923,-0.05923 -0.177693,-0.05923 -0.236924,0.05923 z m 0.533079,-0.118462 c -0.05923,0.118462 0,0.236924 0.118462,0.236924 0.118462,0.05923 0.236924,0 0.236924,-0.118462 0.05923,-0.118462 0,-0.236924 -0.118462,-0.236924 -0.05923,0 -0.177693,0 -0.236924,0.118462 z m 17.11776,-1.006927 c 0,0 -0.05923,-0.05923 -0.05923,-0.05923 -0.473848,0.59231 -0.59231,1.480775 -0.118462,2.132316 l 1.18462,-0.533079 c -0.177693,-0.236924 -0.710772,-1.125389 -1.006927,-1.540006 z m -2.961551,2.073085 c 0.05923,0.05923 0.177693,0.118462 0.236924,0.05923 0.05923,-0.05923 0.118462,-0.177693 0.05923,-0.236924 -0.05923,-0.05923 -0.177693,-0.118462 -0.236924,-0.05923 -0.05923,0.05923 -0.05923,0.118462 -0.05923,0.236924 z m 0.236924,-0.533079 c 0.05923,0.118462 0.177693,0.118462 0.236924,0.05923 0.118463,-0.05923 0.118463,-0.177693 0.05923,-0.236924 -0.05923,-0.118462 -0.177694,-0.118462 -0.236925,-0.05923 -0.118462,0.05923 -0.118462,0.177693 -0.05923,0.236924 z"
     inkscape:connector-curvature="0"
     style="fill:#800000;stroke-width:0.59231001" /><path
     id="path10-4"
     d="m 28.279661,65.530626 c -0.05923,0 -0.05923,0 -0.05923,-0.05923 -0.05923,-0.177693 -0.177693,-0.533079 -0.355386,-0.533079 -0.05923,0 -0.05923,-0.05923 -0.118462,-0.05923 0,-0.05923 0.05923,-0.05923 0.05923,-0.118462 0.355386,0 0.473848,0.59231 0.473848,0.651541 0.05923,0.05923 0.05923,0.118462 0,0.118462 0,0 0,0 0,0 z m -0.533079,0.05923 c 0.05923,0 0.05923,-0.05923 0.05923,-0.118462 0,-0.05923 -0.177693,-0.651541 -0.473848,-0.651541 -0.05923,0 -0.05923,0.05923 -0.05923,0.118462 0,0.05923 0.05923,0.05923 0.05923,0.05923 0,0 0,0 0,0 0.177693,0 0.296155,0.355386 0.296155,0.533079 0,0.05923 0.05923,0.118462 0.118462,0.05923 0,0.05923 0,0 0,0 z m 3.376167,0.177693 c -0.05923,-0.05923 -0.177693,-0.05923 -0.236924,0 -0.414617,0.355386 -0.947696,0.414617 -1.421544,0.177693 -0.236924,-0.118462 -0.414617,-0.296155 -0.533079,-0.473848 -0.118462,0.05923 -0.236924,0.05923 -0.296155,0.05923 0.177693,0.296155 0.414617,0.533079 0.770003,0.710772 0.236924,0.118462 0.473848,0.177693 0.710772,0.177693 0.355386,0 0.770003,-0.118462 1.066158,-0.414617 0,-0.05923 0,-0.177693 -0.05923,-0.236924 z m 10.898504,0.118462 c 0.05923,-0.118462 0.414617,-0.05923 0.59231,0 0.05923,0 0.118462,0 0.118462,-0.05923 0,-0.05923 0,-0.118462 -0.05923,-0.118462 -0.05923,0 -0.651541,-0.236924 -0.829234,0.118462 0,0.05923 0,0.118462 0.05923,0.118462 0,0 0,0 0.05923,0 0,0 0,0 0.05923,-0.05923 z m -0.236924,0.533079 c 0.05923,-0.118462 0.414617,-0.05923 0.59231,0 0.05923,0 0.118462,0 0.118462,-0.05923 0,-0.05923 0,-0.118462 -0.05923,-0.118462 -0.05923,0 -0.651541,-0.236924 -0.829234,0.118462 0,0.05923 0,0.118462 0.05923,0.118462 0,0 0,0 0.05923,0 0,-0.05923 0.05923,-0.05923 0.05923,-0.05923 z m 2.783858,-2.724626 c 0,-0.05923 -0.118462,-0.118462 -0.177693,-0.118462 -0.05923,0 -0.118462,0.118462 -0.118462,0.177693 0.05923,0.533079 -0.118462,1.006927 -0.59231,1.303082 -0.236924,0.118462 -0.473848,0.236924 -0.710772,0.236924 0,0.118462 -0.05923,0.236924 -0.118462,0.296155 0.05923,0 0.05923,0 0.118462,0 0.296155,0 0.59231,-0.118462 0.888465,-0.296155 0.533079,-0.296155 0.829234,-0.947696 0.710772,-1.599237 z"
     inkscape:connector-curvature="0"
     style="fill:#2b3b47;stroke-width:0.59231001" /><path
     id="path14-4"
     d="m 41.014326,56.586745 -2.96155,-7.522338 -6.100793,-1.125389 -2.073085,5.212328 -0.947696,2.90232 c -0.05923,0.296155 0.05923,0.59231 0.355386,0.651541 l 4.264632,1.480775 c 0.296155,0.118462 0.59231,-0.05923 0.710772,-0.355386 l 0.533079,-1.77693 0.947696,2.36924 c 0.118462,0.296155 0.414617,0.414617 0.651541,0.296155 l 4.264632,-1.540006 c 0.355386,0 0.473848,-0.355386 0.355386,-0.59231 z"
     inkscape:connector-curvature="0"
     style="fill:#ff0000;stroke-width:0.59231001" /><path
     id="path16-7"
     d="m 38.941241,40.061295 c 0,-1.18462 -1.125389,-2.191547 -2.724626,-2.546933 v 0.651541 c 0,0.05923 0,0.05923 0,0.118462 0,0.414617 -0.710772,0.770003 -1.540006,0.770003 -0.829234,0 -1.540006,-0.355386 -1.540006,-0.770003 v -0.710772 c -1.18462,0.414617 -1.599237,1.362313 -1.599237,2.487702 l -0.355386,4.73848 1.658468,0.236924 1.303082,-2.310009 0.236924,-0.414617 c 0.177693,0.59231 0.59231,1.125389 1.18462,1.421544 0.236924,0.118462 0.533079,0.177693 0.829234,0.177693 0,0 0.05923,0 0.05923,0 l -0.118462,0.177693 -1.77693,3.020781 -0.05923,0.118462 c -0.296155,0.473848 -0.829234,0.651541 -1.303082,0.533079 l -2.250778,-0.651541 -0.296155,3.55386 c 0,0.947696 1.18462,1.717699 3.968477,1.717699 2.783857,0 5.034635,-0.770003 5.034635,-1.717699 z"
     inkscape:connector-curvature="0"
     style="fill:#800000;stroke-width:0.59231001" /><path
     id="path18-0"
     d="m 34.676609,33.723577 c -0.118462,0 -0.177693,-0.05923 -0.177693,-0.177693 0,-0.118462 0.05923,-0.177693 0.177693,-0.177693 0.355386,0 0.651541,-0.296155 0.651541,-0.651541 0,-0.355386 -0.296155,-0.710772 -0.651541,-0.710772 -0.118462,0 -0.177693,-0.05923 -0.177693,-0.177693 0,-0.118462 0.05923,-0.177693 0.177693,-0.177693 0.59231,0 1.066158,0.473848 1.066158,1.066158 0,0.59231 -0.533079,1.006927 -1.066158,1.006927 z"
     inkscape:connector-curvature="0"
     style="fill:#edc0a2;stroke-width:0.59231001" /><path
     id="path20-5"
     d="m 31.18198,30.465872 c 0,0 0.296155,-0.05923 0.59231,0 0.05923,0 0.177693,0 0.236924,0.05923 0.05923,0 0.118462,0.05923 0.177693,0.05923 0.05923,0 0.118462,0.05923 0.118462,0.118462 0.05923,0 0.05923,0.05923 0.05923,0.05923 0.05923,0.05923 0.05923,0.118462 0,0.177693 -0.05923,0.05923 -0.118462,0.05923 -0.177693,0.05923 h -0.05923 c 0,0 0,0 -0.05923,0 0,0 -0.05923,-0.05923 -0.05923,-0.05923 -0.05923,0 -0.118462,-0.05923 -0.177693,-0.05923 -0.05923,0 -0.118462,0 -0.177693,0 -0.296155,0 -0.533079,0.05923 -0.533079,0.05923 -0.118462,0 -0.177693,-0.05923 -0.177693,-0.118462 0.05923,-0.236924 0.118462,-0.296155 0.236924,-0.355386 -0.05923,0 0,0 0,0 z"
     inkscape:connector-curvature="0"
     style="fill:#e5ab83;stroke-width:0.59231001" /><path
     id="path22-2"
     d="m 32.129676,31.591261 c 0,-0.177693 -0.177693,-0.296155 -0.355386,-0.296155 -0.177693,0 -0.355386,0.118462 -0.355386,0.296155 v 0 0.473848 0 c 0,0 0,0 0,0 0,0.177693 0.177693,0.355386 0.355386,0.355386 0.177693,0 0.355386,-0.177693 0.355386,-0.355386 0,0 0,0 0,0 v 0 z"
     inkscape:connector-curvature="0"
     style="fill:#2b3b47;stroke-width:0.59231001" /><path
     id="path24-6"
     d="m 31.655828,31.591261 c 0,-0.05923 -0.05923,-0.05923 -0.05923,-0.05923 -0.05923,0 -0.05923,0.05923 -0.05923,0.05923 v 0 0.118462 0 0 c 0,0.05923 0.05923,0.05923 0.05923,0.05923 0.05923,0 0.05923,-0.05923 0.05923,-0.05923 v 0 0 z"
     inkscape:connector-curvature="0"
     style="fill:#959da3;stroke-width:0.59231001" /><path
     id="path26-4"
     d="m 35.32815,26.319702 c -1.717699,0 -4.14617,0.651541 -4.205401,0.710772 -0.05923,0.05923 0.177693,0.296155 0.05923,0.355386 -0.177693,0.177693 -0.296155,0.296155 -0.473848,0.533079 -0.177693,0.177693 0.05923,0.296155 0.829234,0.296155 0.177693,0 0,0.473848 0.177693,0.473848 0.118462,0 2.310009,-1.006927 2.310009,2.546933 0,0.296155 0.118462,0.473848 0.414617,0.473848 0.177693,0 1.006927,0.05923 1.006927,0.947696 0,1.006927 2.724626,1.954623 2.783857,1.895392 0.59231,-0.651541 1.18462,-2.250778 1.18462,-3.850015 0,-1.599237 -1.066158,-4.383094 -4.086939,-4.383094 z"
     inkscape:connector-curvature="0"
     style="fill:#ffd42a;stroke-width:0.59231001" /></g><g
   id="g1048"
   transform="translate(-0.59325061,2.3730024)"><path
     id="path2-4-4"
     d="M 64.652386,45.974143 60.21006,40.287967 58.373899,31.344085 c -0.05923,-0.177693 -0.05923,-0.296155 -0.177693,-0.414617 l 3.376167,-3.080012 c 0.414617,-0.355386 0.473848,-1.006927 0.118462,-1.421544 l -0.05923,-0.05923 -2.073085,-2.546933 -1.006927,-1.303082 -0.473848,-0.59231 C 57.900052,21.748664 57.78159,21.51174 57.603897,21.274816 v -0.05923 c 0,0 0,0 0,0 -0.177693,-0.296155 -0.533079,-0.414617 -0.829234,-0.473848 0,-0.05923 0,-0.05923 0,-0.118462 v -1.421544 c 2.606164,-1.243852 2.665395,-5.390022 2.665395,-5.390022 0,-2.36924 -1.895392,-4.264632 -4.264632,-4.264632 -2.36924,0 -4.086939,1.243851 -4.086939,3.55386 v 0.533079 0 c 0,0 -0.355386,1.18462 -0.59231,1.658468 -0.236924,0.533079 0.05923,0.651541 0.651541,0.651541 v 0.888465 c 0,0.177693 0.473848,0.118462 0.651541,0.05923 0.118462,-0.05923 0.296155,0 0.355386,0.118462 0.05923,0.118462 0,0.296155 -0.118462,0.355386 -0.118462,0.05923 -0.414617,0.118462 -0.59231,0.177693 -0.118462,0 -0.177693,0.118462 -0.177693,0.236924 0.296155,1.066159 1.243851,1.480776 2.487702,1.658469 v 1.303082 c 0,0.414617 0.651541,0.770003 1.540006,0.770003 l -0.533079,3.672322 -1.303082,2.310009 -5.212328,-0.770003 c 0,-0.177693 -0.05923,-0.296155 -0.177693,-0.414617 -0.296155,-0.355386 -0.59231,-0.710772 -0.888465,-1.006927 -0.296155,-0.355386 -0.829234,-0.414617 -1.18462,-0.118462 0,0 -0.05923,0.05923 -0.05923,0.05923 -0.414617,-0.118462 -0.888465,0.177693 -1.006927,0.59231 -0.05923,0.236924 -0.177693,0.473848 -0.236924,0.710772 l -0.05923,0.118462 c -0.118462,0.414617 0.118462,0.829234 0.533079,1.006927 0.651541,0.236924 1.303082,0.414617 1.954623,0.533079 0.05923,0 0.118462,0 0.177693,0 l 6.396948,1.895392 c 0.473848,0.177693 1.066158,-0.05923 1.303082,-0.533079 l 0.05923,-0.118462 1.77693,-3.020781 c 0,0 0.829234,-0.473848 1.421544,-0.710772 l 1.066158,1.303082 -5.745407,5.863869 c -0.177693,0.236924 -0.355386,0.533079 -0.473848,0.829234 l -0.414617,0.829234 -0.414617,0.829234 c -0.118462,0.296155 -0.236924,0.59231 -0.355386,0.829234 -0.236924,0.59231 -0.473848,1.18462 -0.651541,1.717699 -0.118462,0.296155 -0.177693,0.592311 -0.296155,0.888466 l -0.296155,0.888465 -0.05923,0.177693 -0.236924,1.125389 c -0.05923,0.355386 -0.177693,0.770003 -0.236924,1.125389 -0.118462,0.770003 -0.236924,1.540006 -0.355386,2.310009 -0.05923,0.414617 -0.118462,0.770003 -0.118462,1.18462 l -0.118462,1.18462 -0.05923,1.18462 c 0,0.414617 -0.05923,0.770003 -0.05923,1.18462 v 0.177693 c 0,0.236924 0.177693,0.473848 0.414617,0.59231 0.296155,0.118462 0.710772,-0.05923 0.829234,-0.355386 l 0.770003,-2.191547 0.710772,-2.191547 1.421544,-4.264632 1.480775,-3.376168 0.770003,-1.717699 0.05923,-0.118462 1.125389,5.567715 0.05923,0.177693 c 0.05923,0.177693 0.118462,0.355386 0.296155,0.533079 l 5.567714,5.271559 0.118462,0.118462 c 0.414618,0.355386 1.006928,0.414617 1.421545,0.05923 0.473848,-0.296155 0.59231,-1.006927 0.177693,-1.480775 z"
     inkscape:connector-curvature="0"
     style="fill:#deaa87;stroke-width:0.59231001" /><path
     id="path4-8-3"
     d="m 51.32541,49.35031 c -0.177693,0.355386 -0.473848,1.066158 -0.710772,1.421544 0,0 -0.414617,-0.177693 -1.066158,-0.473848 -0.296155,-0.118462 -0.651541,-0.296155 -1.066158,-0.414617 -0.414617,-0.177693 -0.829234,-0.296155 -1.243851,-0.473848 -0.236924,-0.05923 -0.414617,-0.177693 -0.59231,-0.236924 -0.177693,-0.05923 -0.414617,-0.177693 -0.59231,-0.236924 -0.355386,-0.177693 -0.710772,-0.355386 -1.006927,-0.473848 -0.296155,-0.118462 -0.533079,-0.296155 -0.710772,-0.355386 -0.118462,-0.05923 -0.177693,-0.118462 -0.236924,-0.118462 0.296155,-0.710772 1.125389,-0.236924 2.191547,-0.236924 0.651541,0 1.125389,0 1.421544,-0.05923 0.888465,-0.177693 1.125389,-0.829234 1.421544,-0.829234 0,0 0,0 0,0 0,0 0.05923,0 0.05923,0 0,0 0,0 0,0 0,0 0.05923,0 0.05923,0 0,0 0,0 0.05923,0 0,0 0.05923,0.05923 0.05923,0.05923 0,0 0.05923,0 0.05923,0.05923 0,0 0.05923,0.05923 0.05923,0.05923 0.05923,0.05923 0.118462,0.177693 0.177693,0.236924 0,0.05923 0.05923,0.05923 0.05923,0.118462 0,0 0,0 0,0.05923 0,0 0,0.05923 0,0.05923 0,0 0,0 0,0.05923 0,0 0,0.05923 0,0.05923 0,0 0,0 0,0.05923 0,0 0,0 0,0.05923 0,0 0,0 -0.05923,0.05923 0,0 0,0 -0.05923,0 0,0 -0.05923,0 -0.05923,0.05923 0,0 0,0 -0.05923,0 0,0 -0.05923,0 -0.05923,0.05923 0,0 0,0 0,0 -0.05923,0 -0.05923,0 -0.118462,0.05923 0,0 0,0 0,0 0,0 0,0 0,0 -0.118462,0.05923 -0.236924,0.05923 -0.296155,0.05923 0.177693,0.296155 0.414617,0.533079 0.770003,0.710772 0.236924,0.118462 0.473848,0.177693 0.710772,0.177693 0.355386,0 0.770003,-0.118462 1.066158,-0.414617 0,0 0,0 0,0 0.05923,0.118462 -0.05923,0.473848 -0.236924,0.829234 z m 14.333903,-2.546933 c -0.236924,-0.414617 -0.533079,-0.710772 -0.829234,-0.710772 0.177693,0.59231 -0.05923,1.243851 -0.59231,1.599237 -0.296155,0.177693 -0.59231,0.236924 -0.888465,0.236924 0,-0.05923 0,-0.118462 0.05923,-0.118462 0,0 0,0 0,-0.05923 0,-0.05923 0,-0.05923 0,-0.118462 0,0 0,0 0,-0.05923 0,0 0,-0.05923 0,-0.05923 0,0 0,-0.05923 0,-0.05923 0,0 0,-0.05923 0,-0.05923 0,0 0,0 0,-0.05923 0,0 0,-0.05923 0,-0.05923 0,0 0,0 0,-0.05923 0,0 0,-0.05923 -0.05923,-0.05923 0,0 0,0 0,0 0,0 -0.05923,0 -0.05923,0 0,0 0,0 -0.05923,0 -0.05923,0 -0.05923,0 -0.118463,0 -1.421544,0.118462 -0.296155,0.59231 -0.770003,1.836161 v 0 c -0.05923,0.177693 -0.236924,0.414617 -0.533079,0.651541 -0.829234,0.770003 -1.362313,0.533079 -1.006927,1.303082 0,0 1.006927,0.236924 1.836161,-0.05923 0.829235,-0.296155 1.006928,-0.177693 1.599238,-0.829234 0.414617,-0.414617 2.428471,-1.599237 2.428471,-1.599237 0,0 -0.651541,-1.125389 -1.006927,-1.658468 z"
     inkscape:connector-curvature="0"
     style="fill:#338000;stroke-width:0.59231001" /><path
     id="path6-4-7"
     d="m 46.764623,47.691842 c 0.118462,0 0.296155,0 0.414617,0 0.236924,0.355386 0.355386,0.710772 0.355386,1.125389 0.414617,0.177693 0.888465,0.236924 1.303082,0.05923 0.296155,-0.118462 0.533079,-0.296155 0.710772,-0.533079 0.05923,0.05923 0.177693,0.118462 0.296155,0.177693 -0.236924,0.296155 -0.533079,0.533079 -0.888465,0.651541 -0.236924,0.05923 -0.473848,0.118462 -0.651541,0.118462 -0.236924,0 -0.533079,-0.05923 -0.770003,-0.177693 0,0.118462 -0.05923,0.236924 -0.118462,0.355386 0,0 -0.05923,0 -0.05923,0 -0.05923,-0.05923 -0.118462,-0.05923 -0.236924,-0.118462 0.118462,-0.59231 0,-1.18462 -0.355386,-1.658468 z m 17.413915,0.05923 c -0.118462,0.05923 -0.177693,0.118462 -0.296155,0.118462 0.118462,0.296155 0.118462,0.59231 0.05923,0.888465 -0.05923,0.355386 -0.236924,0.651541 -0.533079,0.888465 -0.296156,-0.296155 -0.710773,-0.533079 -1.12539,-0.59231 -0.05923,0.05923 -0.118462,0.177693 -0.177693,0.296155 0.651541,0.05923 1.243852,0.473848 1.480776,1.18462 0,0 0,0.05923 0,0.05923 0.118462,-0.05923 0.177693,-0.118462 0.296155,-0.177693 0,0 0,0 0,0 -0.05923,-0.177693 -0.177693,-0.355386 -0.236924,-0.533079 0.59231,-0.533079 0.770003,-1.421544 0.533079,-2.132316 z"
     inkscape:connector-curvature="0"
     style="fill:#ffffff;stroke-width:0.59231001" /><path
     id="path8-5-6"
     d="m 51.32541,49.291079 c 0,0 0,0.05923 -0.05923,0.05923 -0.177693,0.355386 -0.533079,1.066158 -0.710772,1.421544 0,0 -0.414617,-0.177693 -1.066158,-0.473848 -0.05923,0 -0.05923,-0.05923 -0.118462,-0.05923 0.473848,-0.710772 1.243851,-1.066158 1.954622,-0.947696 z m -3.316936,-1.362313 c -0.05923,0.05923 0,0.177693 0.05923,0.236924 0.05923,0.05923 0.177693,0 0.236924,-0.05923 0.05923,-0.05923 0,-0.177693 -0.05923,-0.236924 -0.05923,-0.05923 -0.177693,-0.05923 -0.236924,0.05923 z m 0.533079,-0.118462 c -0.05923,0.118462 0,0.236924 0.118462,0.236924 0.118462,0.05923 0.236924,0 0.236924,-0.118462 0.05923,-0.118462 0,-0.236924 -0.118462,-0.236924 -0.05923,0 -0.177693,0 -0.236924,0.118462 z m 17.11776,-1.006927 c 0,0 -0.05923,-0.05923 -0.05923,-0.05923 -0.473848,0.59231 -0.59231,1.480775 -0.118462,2.132316 l 1.18462,-0.533079 C 66.488548,48.10646 65.955469,47.217995 65.659314,46.803378 Z m -2.961551,2.073085 c 0.05923,0.05923 0.177693,0.118462 0.236924,0.05923 0.05923,-0.05923 0.118462,-0.177693 0.05923,-0.236924 -0.05923,-0.05923 -0.177693,-0.118462 -0.236924,-0.05923 -0.05923,0.05923 -0.05923,0.118462 -0.05923,0.236924 z m 0.236924,-0.533079 c 0.05923,0.118462 0.177693,0.118462 0.236924,0.05923 0.118463,-0.05923 0.118463,-0.177693 0.05923,-0.236924 -0.05923,-0.118462 -0.177694,-0.118462 -0.236925,-0.05923 -0.118462,0.05923 -0.118462,0.177693 -0.05923,0.236924 z"
     inkscape:connector-curvature="0"
     style="fill:#7fff2a;stroke-width:0.59231001" /><path
     id="path10-4-3"
     d="m 48.719246,47.987997 c -0.05923,0 -0.05923,0 -0.05923,-0.05923 -0.05923,-0.177693 -0.177693,-0.533079 -0.355386,-0.533079 -0.05923,0 -0.05923,-0.05923 -0.118462,-0.05923 0,-0.05923 0.05923,-0.05923 0.05923,-0.118462 0.355386,0 0.473848,0.59231 0.473848,0.651541 0.05923,0.05923 0.05923,0.118462 0,0.118462 0,0 0,0 0,0 z m -0.533079,0.05923 c 0.05923,0 0.05923,-0.05923 0.05923,-0.118462 0,-0.05923 -0.177693,-0.651541 -0.473848,-0.651541 -0.05923,0 -0.05923,0.05923 -0.05923,0.118462 0,0.05923 0.05923,0.05923 0.05923,0.05923 0,0 0,0 0,0 0.177693,0 0.296155,0.355386 0.296155,0.533079 0,0.05923 0.05923,0.118462 0.118462,0.05923 0,0.05923 0,0 0,0 z m 3.376167,0.177693 c -0.05923,-0.05923 -0.177693,-0.05923 -0.236924,0 -0.414617,0.355386 -0.947696,0.414617 -1.421544,0.177693 -0.236924,-0.118462 -0.414617,-0.296155 -0.533079,-0.473848 -0.118462,0.05923 -0.236924,0.05923 -0.296155,0.05923 0.177693,0.296155 0.414617,0.533079 0.770003,0.710772 0.236924,0.118462 0.473848,0.177693 0.710772,0.177693 0.355386,0 0.770003,-0.118462 1.066158,-0.414617 0,-0.05923 0,-0.177693 -0.05923,-0.236924 z m 10.898504,0.118462 c 0.05923,-0.118462 0.414617,-0.05923 0.59231,0 0.05923,0 0.118462,0 0.118462,-0.05923 0,-0.05923 0,-0.118462 -0.05923,-0.118462 -0.05923,0 -0.651541,-0.236924 -0.829234,0.118462 0,0.05923 0,0.118462 0.05923,0.118462 0,0 0,0 0.05923,0 0,0 0,0 0.05923,-0.05923 z m -0.236924,0.533079 c 0.05923,-0.118462 0.414617,-0.05923 0.59231,0 0.05923,0 0.118462,0 0.118462,-0.05923 0,-0.05923 0,-0.118462 -0.05923,-0.118462 -0.05923,0 -0.651541,-0.236924 -0.829234,0.118462 0,0.05923 0,0.118462 0.05923,0.118462 0,0 0,0 0.05923,0 0,-0.05923 0.05923,-0.05923 0.05923,-0.05923 z m 2.783858,-2.724626 c 0,-0.05923 -0.118462,-0.118462 -0.177693,-0.118462 -0.05923,0 -0.118462,0.118462 -0.118462,0.177693 0.05923,0.533079 -0.118462,1.006927 -0.59231,1.303082 -0.236924,0.118462 -0.473848,0.236924 -0.710772,0.236924 0,0.118462 -0.05923,0.236924 -0.118462,0.296155 0.05923,0 0.05923,0 0.118462,0 0.296155,0 0.59231,-0.118462 0.888465,-0.296155 0.533079,-0.296155 0.829234,-0.947696 0.710772,-1.599237 z"
     inkscape:connector-curvature="0"
     style="fill:#2b3b47;stroke-width:0.59231001" /><path
     id="path12-4-1"
     d="m 44.039997,47.869535 c 0,0 0.118462,0.05923 0.296155,0.177693 0.177693,0.118462 0.414617,0.236924 0.710772,0.355386 0.296155,0.118462 0.651541,0.296155 1.006927,0.473848 0.177693,0.05923 0.414617,0.177693 0.59231,0.236924 0.177693,0.05923 0.414617,0.177693 0.59231,0.236924 0.414617,0.177693 0.829234,0.296155 1.243851,0.473848 0.414617,0.118462 0.770003,0.296155 1.066158,0.414617 0.651541,0.296155 1.066158,0.473848 1.066158,0.473848 l -0.296155,0.59231 c 0,0 -0.414617,-0.177693 -1.006927,-0.473848 C 49.015401,50.653392 48.660015,50.53493 48.245398,50.357237 47.890012,50.179544 47.416164,50.001851 47.001547,49.824158 46.823854,49.705696 46.58693,49.646465 46.409237,49.528003 46.231544,49.409541 45.99462,49.35031 45.816927,49.231848 45.461541,49.054155 45.106155,48.817231 44.81,48.698769 44.513845,48.521076 44.276921,48.402614 44.099228,48.284152 43.921535,48.16569 43.862304,48.106459 43.862304,48.106459 Z m 16.762373,3.376167 c 0,0 0.118462,0 0.296155,0 0.177693,0.05923 0.473848,0.05923 0.829234,0 0.177693,0 0.355386,-0.05923 0.533079,-0.118462 0.177693,-0.05923 0.355386,-0.118462 0.533079,-0.177693 0.177693,-0.05923 0.355387,-0.118462 0.592311,-0.177693 0.177693,-0.05923 0.414617,-0.177693 0.59231,-0.236924 0.414617,-0.177693 0.770003,-0.473848 1.066158,-0.710772 0.296155,-0.236924 0.59231,-0.414617 0.888465,-0.59231 0.533079,-0.355386 0.888465,-0.533079 0.888465,-0.533079 L 66.66624,48.16569 c 0,0 -0.355386,0.236924 -0.888465,0.59231 -0.236924,0.177693 -0.533079,0.414617 -0.888465,0.651541 -0.296155,0.236924 -0.59231,0.533079 -0.947696,0.710772 -0.177693,0.118462 -0.355386,0.177693 -0.533079,0.236924 -0.177693,0.05923 -0.355387,0.177693 -0.53308,0.236924 -0.177693,0.05923 -0.355386,0.118462 -0.533079,0.177693 -0.177693,0.05923 -0.296155,0.118462 -0.473848,0.118462 -0.296155,0.05923 -0.473848,0.05923 -0.710772,0 -0.177693,0 -0.296155,0 -0.296155,0 z"
     inkscape:connector-curvature="0"
     style="fill:#445016;stroke-width:0.59231001" /><path
     id="path14-4-4"
     d="m 61.453911,39.044116 -2.96155,-7.522338 -6.100793,-1.125389 -2.073085,5.212328 -0.947696,2.90232 c -0.05923,0.296155 0.05923,0.59231 0.355386,0.651541 l 4.264632,1.480775 c 0.296155,0.118462 0.59231,-0.05923 0.710772,-0.355386 l 0.533079,-1.77693 0.947696,2.36924 c 0.118462,0.296155 0.414617,0.414617 0.651541,0.296155 l 4.264632,-1.540006 c 0.355386,0 0.473848,-0.355386 0.355386,-0.59231 z"
     inkscape:connector-curvature="0"
     style="fill:#55d400;stroke-width:0.59231001" /><path
     id="path16-7-4"
     d="m 59.380826,22.518666 c 0,-1.18462 -1.125389,-2.191547 -2.724626,-2.546933 v 0.651541 c 0,0.05923 0,0.05923 0,0.118462 0,0.414617 -0.710772,0.770003 -1.540006,0.770003 -0.829234,0 -1.540006,-0.355386 -1.540006,-0.770003 v -0.710772 c -1.18462,0.414617 -1.599237,1.362313 -1.599237,2.487702 l -0.355386,4.73848 1.658468,0.236924 1.303082,-2.310009 0.236924,-0.414617 c 0.177693,0.59231 0.59231,1.125389 1.18462,1.421544 0.236924,0.118462 0.533079,0.177693 0.829234,0.177693 0,0 0.05923,0 0.05923,0 l -0.118462,0.177693 -1.77693,3.020781 -0.05923,0.118462 c -0.296155,0.473848 -0.829234,0.651541 -1.303082,0.533079 l -2.250778,-0.651541 -0.296155,3.55386 c 0,0.947696 1.18462,1.717699 3.968477,1.717699 2.783857,0 5.034635,-0.770003 5.034635,-1.717699 z"
     inkscape:connector-curvature="0"
     style="fill:#338000;stroke-width:0.59231001" /><path
     id="path18-0-7"
     d="m 55.116194,16.180948 c -0.118462,0 -0.177693,-0.05923 -0.177693,-0.177693 0,-0.118462 0.05923,-0.177693 0.177693,-0.177693 0.355386,0 0.651541,-0.296155 0.651541,-0.651541 0,-0.355386 -0.296155,-0.710772 -0.651541,-0.710772 -0.118462,0 -0.177693,-0.05923 -0.177693,-0.177693 0,-0.118462 0.05923,-0.177693 0.177693,-0.177693 0.59231,0 1.066158,0.473848 1.066158,1.066158 0,0.59231 -0.533079,1.006927 -1.066158,1.006927 z"
     inkscape:connector-curvature="0"
     style="fill:#483e37;stroke-width:0.59231001" /><path
     id="path20-5-2"
     d="m 51.621565,12.923243 c 0,0 0.296155,-0.05923 0.59231,0 0.05923,0 0.177693,0 0.236924,0.05923 0.05923,0 0.118462,0.05923 0.177693,0.05923 0.05923,0 0.118462,0.05923 0.118462,0.118462 0.05923,0 0.05923,0.05923 0.05923,0.05923 0.05923,0.05923 0.05923,0.118462 0,0.177693 -0.05923,0.05923 -0.118462,0.05923 -0.177693,0.05923 h -0.05923 c 0,0 0,0 -0.05923,0 0,0 -0.05923,-0.05923 -0.05923,-0.05923 -0.05923,0 -0.118462,-0.05923 -0.177693,-0.05923 -0.05923,0 -0.118462,0 -0.177693,0 -0.296155,0 -0.533079,0.05923 -0.533079,0.05923 -0.118462,0 -0.177693,-0.05923 -0.177693,-0.118462 0.05923,-0.236924 0.118462,-0.296155 0.236924,-0.355386 -0.05923,0 0,0 0,0 z"
     inkscape:connector-curvature="0"
     style="fill:#483e37;stroke-width:0.59231001" /><path
     id="path22-2-0"
     d="m 52.569261,14.048632 c 0,-0.177693 -0.177693,-0.296155 -0.355386,-0.296155 -0.177693,0 -0.355386,0.118462 -0.355386,0.296155 v 0 0.473848 0 c 0,0 0,0 0,0 0,0.177693 0.177693,0.355386 0.355386,0.355386 0.177693,0 0.355386,-0.177693 0.355386,-0.355386 0,0 0,0 0,0 v 0 z"
     inkscape:connector-curvature="0"
     style="fill:#2b3b47;stroke-width:0.59231001" /><path
     id="path24-6-0"
     d="m 52.095413,14.048632 c 0,-0.05923 -0.05923,-0.05923 -0.05923,-0.05923 -0.05923,0 -0.05923,0.05923 -0.05923,0.05923 v 0 0.118462 0 0 c 0,0.05923 0.05923,0.05923 0.05923,0.05923 0.05923,0 0.05923,-0.05923 0.05923,-0.05923 v 0 0 z"
     inkscape:connector-curvature="0"
     style="fill:#959da3;stroke-width:0.59231001" /><path
     id="path26-4-8"
     d="m 55.767735,8.777073 c -1.717699,0 -4.14617,0.651541 -4.205401,0.710772 -0.05923,0.05923 0.177693,0.296155 0.05923,0.355386 -0.177693,0.177693 -0.296155,0.296155 -0.473848,0.533079 -0.177693,0.177693 0.05923,0.296155 0.829234,0.296155 0.177693,0 0,0.473848 0.177693,0.473848 0.118462,0 2.310009,-1.006927 2.310009,2.546933 0,0.296155 0.118462,0.473848 0.414617,0.473848 0.177693,0 1.006927,0.05923 1.006927,0.947696 0,1.006927 2.724626,1.954623 2.783857,1.895392 0.59231,-0.651541 1.18462,-2.250778 1.18462,-3.850015 0,-1.599237 -1.066158,-4.383094 -4.086939,-4.383094 z"
     inkscape:connector-curvature="0"
     style="fill:#6c6753;stroke-width:0.59231001" /></g></svg>